# xmcd
#
# Track frame offsets: 
#        150
#        16513
#        30518
#        46502
#        60591
#        83584
#        103274
#        116992
#        132328
#        150873
#        166274
#        187157
#
# Disc length: 2712 seconds
#
# Revision: 0
# Processed by: cddbd v1.5.2PL0 Copyright (c) Steve Scherf et al.
# Submitted via: ExactAudioCopy v0.99pb4
#
DISCID=880a960c
DTITLE=Various Artist - Lustige Lieder aus der Sesamstrasse  Folge 2
DYEAR=1993
DGENRE=Various Artists
TTITLE0=Nieslied
TTITLE1=Es gibt so Leute
TTITLE2=Nachbarschaftssong
TTITLE3=Freitag, der 13.
TTITLE4=Orchestersong
TTITLE5=Monatssong
TTITLE6=Die Reise des Zehnmarkscheins
TTITLE7=Frikadellenblues
TTITLE8=Globusreisen
TTITLE9=Namen, Namen, nichts als Namen
TTITLE10=Vor vielen, vielen Jahren
TTITLE11=Schlaflied
EXTD=
EXTT0=
EXTT1=
EXTT2=
EXTT3=
EXTT4=
EXTT5=
EXTT6=
EXTT7=
EXTT8=
EXTT9=
EXTT10=
EXTT11=
PLAYORDER=
